<svg id="Layer_1" data-name="Layer 1" xmlns="http://www.w3.org/2000/svg" viewBox="0 0 197.42 167.41"><defs><style>.cls-1{fill:#22fccf;}</style></defs><path class="cls-1" d="M66.28,21H89c1.38,0,1.7.48,2.59,1.29l7.11,6.61,7.11-6.62c.89-.81,1.2-1.28,2.58-1.28h22.74c0,2.24-.09,3.39-.85,4.14l-29.57,32a1,1,0,0,1-.71.28H97.39a1,1,0,0,1-.74-.28l-29.57-32C66.34,24.38,66.29,23.23,66.28,21Zm112.54-.91L148.6,55.83h48.82v3.79a3.07,3.07,0,0,1-2.14,2.8c-3.19.85-8.59,3.12-16.46,13.5l-76.75,90.77a1.56,1.56,0,0,1-1.31.72h-4.1a1.52,1.52,0,0,1-1.31-.72L18.6,75.92C10.73,65.54,5.32,63.27,2.14,62.42A3.07,3.07,0,0,1,0,59.62V55.88H48.86L18.6,20.09C10.73,9.71,5.32,7.44,2.14,6.59A3.07,3.07,0,0,1,0,3.79V.05H70.48a11,11,0,0,1,4.7,1C78,2.36,83.71,9.26,83.71,9.26H40.07c-3.39.06-4.35,2.54-3.67,5.06.84,3.09,6.72,8.93,6.72,8.93L95.67,82.71a2,2,0,0,0,1.5.66h3.08a2,2,0,0,0,1.5-.66L154.3,23.25s5.88-5.84,6.72-8.93c.68-2.52-.28-5.06-3.68-5.06H113.71s5.76-6.9,8.52-8.21a11.09,11.09,0,0,1,4.71-1h70.48V3.79a3.07,3.07,0,0,1-2.14,2.8C192.09,7.44,186.69,9.71,178.82,20.09Zm-38,45-38.7,45.77a1.56,1.56,0,0,1-1.31.72h-4.1a1.54,1.54,0,0,1-1.31-.72L56.65,65.09H40.07c-3.39.06-4.35,2.54-3.67,5.06.84,3.09,6.72,8.93,6.72,8.93l52.55,59.46a2,2,0,0,0,1.5.66h3.08a2,2,0,0,0,1.5-.66L154.3,79.08s5.88-5.84,6.72-8.93c.68-2.52-.28-5.06-3.68-5.06Z"/></svg>
