<svg id="Layer_1" data-name="Layer 1" xmlns="http://www.w3.org/2000/svg" viewBox="0 0 197.42 121.58"><defs><style>.cls-1{fill:#22fccf;}</style></defs><path class="cls-1" d="M68,27.36l.15.26a12.86,12.86,0,0,0,1.93,2.52l26.57,27a1,1,0,0,0,.73.28H100a1,1,0,0,0,.72-.28l26.57-27a12.13,12.13,0,0,0,1.93-2.52l.16-.26A12.76,12.76,0,0,0,131.13,21H108.4c-1.38,0-1.69.47-2.58,1.28l-7.11,6.62L91.6,22.29C90.71,21.48,90.39,21,89,21H66.28A12.77,12.77,0,0,0,68,27.36Z"/><path class="cls-1" d="M161.37,0H126.94a11.07,11.07,0,0,0-4.71,1.05c-2.76,1.31-8.52,8.21-8.52,8.21h45.63c3.4,0,3.36,3.54,2.68,6.06-.84,3.09-5.72,7.93-5.72,7.93L101.75,82.71a2,2,0,0,1-1.5.66H97.17a2,2,0,0,1-1.5-.66L41.12,23.25s-4.88-4.84-5.72-7.93c-.68-2.52-.72-6,2.67-6.06H83.71S78,2.36,75.18,1.05a11.06,11.06,0,0,0-4.7-1H0V3.79a3.07,3.07,0,0,0,2.14,2.8c3.18.85,8.59,3.12,16.46,13.5L95.35,120.86a1.54,1.54,0,0,0,1.31.72h4.1a1.56,1.56,0,0,0,1.31-.72L178.82,20.09c7.87-10.38,13.27-12.65,16.46-13.5a3.07,3.07,0,0,0,2.14-2.8V0Z"/></svg>
