<svg id="Layer_1" data-name="Layer 1" xmlns="http://www.w3.org/2000/svg" viewBox="0 0 197.42 167.36"><defs><style>.cls-1{fill:#22fccf;}</style></defs><path class="cls-1" d="M67.08,142.32l29.57-32a1,1,0,0,1,.74-.28H100a1,1,0,0,1,.71.28l29.57,32c.76.75.85,1.9.85,4.14H108.39c-1.38,0-1.69-.47-2.58-1.28l-7.11-6.62-7.11,6.61c-.89.81-1.21,1.29-2.59,1.29H66.28C66.29,144.23,66.34,143.08,67.08,142.32Zm128.2,18.55a3.07,3.07,0,0,1,2.14,2.8v3.74H126.94a11.11,11.11,0,0,1-4.71-1c-2.76-1.31-8.52-8.21-8.52-8.21h43.63c3.4,0,4.36-2.54,3.68-5.06-.84-3.09-6.72-8.93-6.72-8.93L101.75,84.75a2,2,0,0,0-1.5-.66H97.17a2,2,0,0,0-1.5.66L43.12,144.21s-5.88,5.84-6.72,8.93c-.68,2.52.28,5,3.67,5.06H83.71s-5.71,6.9-8.53,8.21a10.89,10.89,0,0,1-4.7,1H0v-3.74a3.07,3.07,0,0,1,2.14-2.8c3.18-.85,8.59-3.12,16.46-13.5l30.26-35.79H0v-3.74A3.07,3.07,0,0,1,2.14,105c3.18-.85,8.59-3.12,16.46-13.5L95.35.77A1.52,1.52,0,0,1,96.66.05h4.1a1.56,1.56,0,0,1,1.31.72l76.75,90.77c7.87,10.38,13.27,12.65,16.46,13.5a3.07,3.07,0,0,1,2.14,2.8v3.79H148.6l30.22,35.74C186.69,157.75,192.09,160,195.28,160.87Zm-37.94-58.5c3.4,0,4.36-2.54,3.68-5.06-.84-3.09-6.72-8.93-6.72-8.93L101.75,28.92a2,2,0,0,0-1.5-.66H97.17a2,2,0,0,0-1.5.66L43.12,88.38s-5.88,5.84-6.72,8.93c-.68,2.52.28,5,3.67,5.06H56.65L95.4,56.6a1.54,1.54,0,0,1,1.31-.72h4.1a1.56,1.56,0,0,1,1.31.72l38.7,45.77Z" transform="translate(0 -0.05)"/></svg>
